# xmcd
#
# Track frame offsets:
#	150
#	29497
#	53710
#	86497
#	104910
#	134297
#	161972
#	189452
#	208425
#	241367
#	254582
#
# Disc length: 3871 seconds
#
# Revision: 0
# Processed by: cddbd v1.4PL0 Copyright (c) Steve Scherf et al.
# Submitted via: dBpowerAMP V4.0
#
DISCID=a90f1d0b
DTITLE=Innes Sibun - After Dark Live
DYEAR=1999
DGENRE=Blues
TTITLE0=I'll Be There
TTITLE1=Don't Look For Me
TTITLE2=Sandy
TTITLE3=Say It Loud
TTITLE4=It's Too Late
TTITLE5=Angelstar
TTITLE6=Lonely Nights
TTITLE7=My Eyes Are Crying
TTITLE8=Fishermans Wharf
TTITLE9=Little Wing
TTITLE10=My My My
EXTD=
EXTT0=
EXTT1=
EXTT2=
EXTT3=
EXTT4=
EXTT5=
EXTT6=
EXTT7=
EXTT8=
EXTT9=
EXTT10=
PLAYORDER=
